<svg preserveAspectRatio="xMidYMid meet" width="100%" height="100%" overflow="visible" style="display: block;" viewBox="0 0 322.979 322.979" fill="none" xmlns="http://www.w3.org/2000/svg">
<g id="Toolbar Vector Container">
<rect x="0.5" y="0.5" width="321.979" height="321.979" fill="var(--fill-0, white)"/>
<rect x="0.5" y="0.5" width="321.979" height="321.979" stroke="var(--stroke-0, black)"/>
<path id="Vector" fill-rule="evenodd" clip-rule="evenodd" d="M216.002 134.527L205.909 188.355C204.963 193.496 201.914 196.015 196.867 196.015H113.176C108.13 196.015 106.027 193.496 107.078 188.355L117.172 134.527C118.118 129.386 121.167 126.868 126.214 126.868H209.904C214.951 126.868 217.054 129.386 216.002 134.527ZM226.095 80.6999H127.265C86.6816 80.6999 63.551 96.1242 57.7684 126.868L44.7312 196.12C38.9486 226.863 56.2965 242.288 96.88 242.288H195.71C236.294 242.288 259.424 226.863 265.207 196.12L278.244 126.868C284.027 96.1242 266.679 80.6999 226.095 80.6999Z" fill="var(--fill-0, black)"/>
</g>
</svg>
