<svg preserveAspectRatio="xMidYMid meet" width="100%" height="100%" overflow="visible" style="display: block;" viewBox="0 0 110.086 17.2645" fill="none" xmlns="http://www.w3.org/2000/svg">
<g id="Layer_1" clip-path="url(#clip0_0_37)">
<path id="Vector" fill-rule="evenodd" clip-rule="evenodd" d="M15.5476 6.907H13.2829C10.2634 6.907 8.53347 8.06058 8.10099 10.3599H15.4689C18.4884 10.3599 20.2184 9.20631 20.6508 6.907L21.2956 3.4541C21.7281 1.15478 20.4307 0.00120304 17.4112 0.00120304H3.24145L0.00176699 17.2657C3.02128 17.2657 4.75121 16.1121 5.1837 13.8128L7.12594 3.4541H16.1923C16.5698 3.4541 16.7192 3.64244 16.6484 4.02697L16.2159 6.32628C16.1452 6.71081 15.9171 6.89915 15.5397 6.89915L15.5476 6.907Z" fill="var(--fill-0, white)"/>
<path id="Vector_2" fill-rule="evenodd" clip-rule="evenodd" d="M20.9749 17.2659C24.0102 17.2659 25.7401 16.1123 26.1726 13.813L27.8003 5.18079H23.2474L20.9749 17.2659Z" fill="var(--fill-0, white)"/>
<path id="Vector_3" fill-rule="evenodd" clip-rule="evenodd" d="M24.2243 0.00120304H28.7771L28.1245 3.4541H23.5716L24.2243 0.00120304Z" fill="var(--fill-0, white)"/>
<path id="Vector_4" fill-rule="evenodd" clip-rule="evenodd" d="M26.9914 17.2659H32.1104L36.4824 13.6953L39.5098 17.2659H44.6288L39.5098 11.2234L46.9013 5.18079H44.0548C42.5372 5.18079 41.1061 5.75365 39.7693 6.90723L37.4103 8.7514L35.7669 6.90723C34.8468 5.75365 33.628 5.18079 32.1104 5.18079H29.2639L34.3829 11.2234L26.9914 17.2659Z" fill="var(--fill-0, white)"/>
<path id="Vector_5" fill-rule="evenodd" clip-rule="evenodd" d="M58.6267 8.63368C58.5559 9.01821 58.3279 10.0148 57.9504 10.0148H55.678C52.9101 10.0148 51.1565 10.5171 50.6218 12.0866H50.5825L51.1251 9.20655C51.1959 8.82202 51.4239 8.63368 51.8013 8.63368H58.6267ZM63.2818 8.06082H63.2425C63.3604 6.14603 62.0394 5.18079 59.2715 5.18079H51.88C48.8447 5.18079 47.1148 6.33437 46.6823 8.63368L45.7073 13.813C45.2748 16.1123 46.5722 17.2659 49.6075 17.2659H56.999C60.0342 17.2659 61.7642 16.1123 62.1966 13.813H50.8184C50.441 13.813 50.2837 13.6247 50.3545 13.2402L50.4646 12.6673H57.8561C60.8913 12.6673 62.6213 11.5137 63.0537 9.2144L63.2739 8.06082H63.2818Z" fill="var(--fill-0, white)"/>
<path id="Vector_6" fill-rule="evenodd" clip-rule="evenodd" d="M70.9869 0.00120304C67.9517 0.00120304 66.2217 1.15478 65.7892 3.4541L63.1865 17.2657H67.7393L70.9869 0.00120304Z" fill="var(--fill-0, white)"/>
<path id="Vector_7" fill-rule="evenodd" clip-rule="evenodd" d="M77.7403 0.00120304C74.7051 0.00120304 72.9752 1.15478 72.5427 3.4541L69.9399 17.2657H74.4928L77.7403 0.00120304Z" fill="var(--fill-0, white)"/>
<path id="Vector_8" fill-rule="evenodd" clip-rule="evenodd" d="M89.966 9.20655L89.2112 13.2323C89.1404 13.6168 88.9124 13.8052 88.5349 13.8052H82.2757C81.8983 13.8052 81.741 13.6168 81.8196 13.2323L82.5745 9.20655C82.6453 8.82202 82.8733 8.63368 83.2508 8.63368H89.51C89.8874 8.63368 90.0447 8.82202 89.966 9.20655ZM90.7209 5.18079H83.3294C80.2942 5.18079 78.5642 6.33437 78.1317 8.63368L77.1567 13.813C76.7242 16.1123 78.0217 17.2659 81.0569 17.2659H88.4484C91.4837 17.2659 93.2136 16.1123 93.6461 13.813L94.6211 8.63368C95.0536 6.33437 93.7562 5.18079 90.7209 5.18079Z" fill="var(--fill-0, #00D6FE)"/>
<path id="Vector_9" fill-rule="evenodd" clip-rule="evenodd" d="M100.339 8.63345L99.364 13.8128C98.9315 16.1121 100.229 17.2657 103.264 17.2657H107.817C108.25 14.9664 106.952 13.8128 103.917 13.8128L104.892 8.63345C107.927 8.63345 109.657 7.47986 110.09 5.18055H105.537L105.859 3.4541C106.292 1.15478 104.994 0.00120304 101.959 0.00120304L100.984 5.18055C97.9486 5.18055 96.2187 6.33413 95.7862 8.63345H100.339Z" fill="var(--fill-0, white)"/>
</g>
<defs>
<clipPath id="clip0_0_37">
<rect width="110.086" height="17.2645" fill="white"/>
</clipPath>
</defs>
</svg>
