<svg preserveAspectRatio="xMidYMid meet" width="100%" height="100%" overflow="visible" style="display: block;" viewBox="0 0 110.086 17.2645" fill="none" xmlns="http://www.w3.org/2000/svg">
<g id="Layer_1" clip-path="url(#clip0_0_17)">
<path id="Vector" fill-rule="evenodd" clip-rule="evenodd" d="M15.5476 6.9063H13.2829C10.2634 6.9063 8.53347 8.05988 8.10099 10.3592H15.4689C18.4884 10.3592 20.2184 9.20561 20.6508 6.9063L21.2956 3.4534C21.7281 1.15408 20.4307 0.000501587 17.4112 0.000501587H3.24145L0.00176699 17.265C3.02128 17.265 4.75121 16.1114 5.1837 13.8121L7.12594 3.4534H16.1923C16.5698 3.4534 16.7192 3.64174 16.6484 4.02627L16.2159 6.32558C16.1452 6.71011 15.9171 6.89845 15.5397 6.89845L15.5476 6.9063Z" fill="var(--fill-0, white)"/>
<path id="Vector_2" fill-rule="evenodd" clip-rule="evenodd" d="M20.9749 17.2652C24.0102 17.2652 25.7401 16.1116 26.1726 13.8123L27.8003 5.18008H23.2474L20.9749 17.2652Z" fill="var(--fill-0, white)"/>
<path id="Vector_3" fill-rule="evenodd" clip-rule="evenodd" d="M24.2243 0.000501587H28.7771L28.1245 3.4534H23.5716L24.2243 0.000501587Z" fill="var(--fill-0, white)"/>
<path id="Vector_4" fill-rule="evenodd" clip-rule="evenodd" d="M26.9914 17.2652H32.1104L36.4824 13.6946L39.5098 17.2652H44.6288L39.5098 11.2227L46.9013 5.18008H44.0548C42.5372 5.18008 41.1061 5.75295 39.7693 6.90653L37.4103 8.75069L35.7669 6.90653C34.8468 5.75295 33.628 5.18008 32.1104 5.18008H29.2639L34.3829 11.2227L26.9914 17.2652Z" fill="var(--fill-0, white)"/>
<path id="Vector_5" fill-rule="evenodd" clip-rule="evenodd" d="M58.6267 8.63298C58.5559 9.01751 58.3279 10.0141 57.9504 10.0141H55.678C52.9101 10.0141 51.1565 10.5164 50.6218 12.0859H50.5825L51.1251 9.20585C51.1959 8.82132 51.4239 8.63298 51.8013 8.63298H58.6267ZM63.2818 8.06011H63.2425C63.3604 6.14533 62.0394 5.18008 59.2715 5.18008H51.88C48.8447 5.18008 47.1148 6.33367 46.6823 8.63298L45.7073 13.8123C45.2748 16.1116 46.5722 17.2652 49.6075 17.2652H56.999C60.0342 17.2652 61.7642 16.1116 62.1966 13.8123H50.8184C50.441 13.8123 50.2837 13.624 50.3545 13.2395L50.4646 12.6666H57.8561C60.8913 12.6666 62.6213 11.513 63.0537 9.2137L63.2739 8.06011H63.2818Z" fill="var(--fill-0, white)"/>
<path id="Vector_6" fill-rule="evenodd" clip-rule="evenodd" d="M70.9869 0.000501587C67.9517 0.000501587 66.2217 1.15408 65.7892 3.4534L63.1865 17.265H67.7393L70.9869 0.000501587Z" fill="var(--fill-0, white)"/>
<path id="Vector_7" fill-rule="evenodd" clip-rule="evenodd" d="M77.7403 0.000501587C74.7051 0.000501587 72.9752 1.15408 72.5427 3.4534L69.9399 17.265H74.4928L77.7403 0.000501587Z" fill="var(--fill-0, white)"/>
<path id="Vector_8" fill-rule="evenodd" clip-rule="evenodd" d="M89.966 9.20585L89.2112 13.2316C89.1404 13.6161 88.9124 13.8045 88.5349 13.8045H82.2757C81.8983 13.8045 81.741 13.6161 81.8196 13.2316L82.5745 9.20585C82.6453 8.82132 82.8733 8.63298 83.2508 8.63298H89.51C89.8874 8.63298 90.0447 8.82132 89.966 9.20585ZM90.7209 5.18008H83.3294C80.2942 5.18008 78.5642 6.33367 78.1317 8.63298L77.1567 13.8123C76.7242 16.1116 78.0217 17.2652 81.0569 17.2652H88.4484C91.4837 17.2652 93.2136 16.1116 93.6461 13.8123L94.6211 8.63298C95.0536 6.33367 93.7562 5.18008 90.7209 5.18008Z" fill="var(--fill-0, #00D6FE)"/>
<path id="Vector_9" fill-rule="evenodd" clip-rule="evenodd" d="M100.339 8.63274L99.364 13.8121C98.9315 16.1114 100.229 17.265 103.264 17.265H107.817C108.25 14.9657 106.952 13.8121 103.917 13.8121L104.892 8.63274C107.927 8.63274 109.657 7.47916 110.09 5.17985H105.537L105.859 3.4534C106.292 1.15408 104.994 0.000501587 101.959 0.000501587L100.984 5.17985C97.9486 5.17985 96.2187 6.33343 95.7862 8.63274H100.339Z" fill="var(--fill-0, white)"/>
</g>
<defs>
<clipPath id="clip0_0_17">
<rect width="110.086" height="17.2645" fill="white"/>
</clipPath>
</defs>
</svg>
