<svg preserveAspectRatio="xMidYMid meet" width="100%" height="100%" overflow="visible" style="display: block;" viewBox="0 0 23.3957 17.8909" fill="none" xmlns="http://www.w3.org/2000/svg">
<g id="Email">
<path id="Vector" d="M2.74579e-05 2.86253C2.74579e-05 1.2816 1.4448 0 3.22702 0H20.1687C21.951 0 23.3957 1.2816 23.3957 2.86253V15.0283C23.3957 16.6093 21.951 17.8908 20.1687 17.8908H3.22702C1.4448 17.8908 2.74579e-05 16.6093 2.74579e-05 15.0283V2.86253Z" fill="var(--fill-0, #00D6FE)"/>
<path id="Vector (Stroke)" fill-rule="evenodd" clip-rule="evenodd" d="M0.303786 0.40834C0.746605 -0.0922374 1.51138 -0.13906 2.01196 0.303758L11.6979 8.87207L21.3838 0.303758C21.8844 -0.13906 22.6491 -0.0922374 23.092 0.40834C23.5348 0.908918 23.488 1.67369 22.9874 2.11651L12.4997 11.3941C12.0419 11.7991 11.3539 11.7991 10.8961 11.3941L0.408368 2.11651C-0.0922099 1.67369 -0.139033 0.908918 0.303786 0.40834Z" fill="var(--fill-0, #F8FBFF)"/>
</g>
</svg>
