<svg preserveAspectRatio="xMidYMid meet" width="100%" height="100%" overflow="visible" style="display: block;" viewBox="0 0 139.309 21.8474" fill="none" xmlns="http://www.w3.org/2000/svg">
<g id="Layer_1" clip-path="url(#clip0_0_20)">
<path id="Vector" fill-rule="evenodd" clip-rule="evenodd" d="M19.6725 8.73897H16.8067C12.9856 8.73897 10.7965 10.1988 10.2492 13.1085H19.573C23.394 13.1085 25.5832 11.6487 26.1305 8.73897L26.9464 4.36949C27.4937 1.45981 25.8519 0 22.0308 0H4.09968L0 21.8474C3.82106 21.8474 6.01021 20.3876 6.5575 17.4779L9.01531 4.36949H20.4884C20.9661 4.36949 21.1551 4.60782 21.0656 5.09442L20.5183 8.0041C20.4287 8.4907 20.1402 8.72904 19.6625 8.72904L19.6725 8.73897Z" fill="var(--fill-0, #02131D)"/>
<path id="Vector_2" fill-rule="evenodd" clip-rule="evenodd" d="M26.543 21.8479C30.3839 21.8479 32.5731 20.3881 33.1204 17.4784L35.1802 6.55469H29.4187L26.543 21.8479Z" fill="var(--fill-0, #02131D)"/>
<path id="Vector_3" fill-rule="evenodd" clip-rule="evenodd" d="M30.6443 0H36.4057L35.5798 4.36949H29.8184L30.6443 0Z" fill="var(--fill-0, #02131D)"/>
<path id="Vector_4" fill-rule="evenodd" clip-rule="evenodd" d="M34.1543 21.8479H40.6322L46.1648 17.3294L49.9958 21.8479H56.4737L49.9958 14.2013L59.3494 6.55469H55.7473C53.8268 6.55469 52.0158 7.27963 50.3241 8.73943L47.3389 11.0731L45.2593 8.73943C44.095 7.27963 42.5527 6.55469 40.6322 6.55469H37.03L43.5079 14.2013L34.1543 21.8479Z" fill="var(--fill-0, #02131D)"/>
<path id="Vector_5" fill-rule="evenodd" clip-rule="evenodd" d="M74.1801 10.9242C74.0905 11.4108 73.802 12.672 73.3243 12.672H70.4486C66.9459 12.672 64.7269 13.3075 64.0503 15.2937H64.0005L64.6871 11.6491C64.7767 11.1625 65.0653 10.9242 65.5429 10.9242H74.1801ZM80.0709 10.1992H80.0211C80.1704 7.77616 78.4987 6.55469 74.996 6.55469H65.6424C61.8014 6.55469 59.6123 8.01449 59.065 10.9242L57.8311 17.4784C57.2838 20.3881 58.9257 21.8479 62.7667 21.8479H72.1203C75.9613 21.8479 78.1504 20.3881 78.6977 17.4784H64.2991C63.8214 17.4784 63.6224 17.2401 63.712 16.7535L63.8513 16.0285H73.2049C77.0459 16.0285 79.235 14.5687 79.7823 11.659L80.0609 10.1992H80.0709Z" fill="var(--fill-0, #02131D)"/>
<path id="Vector_6" fill-rule="evenodd" clip-rule="evenodd" d="M89.8242 0C85.9832 0 83.7941 1.45981 83.2468 4.36949L79.9531 21.8474H85.7146L89.8242 0Z" fill="var(--fill-0, #02131D)"/>
<path id="Vector_7" fill-rule="evenodd" clip-rule="evenodd" d="M98.375 0C94.534 0 92.3449 1.45981 91.7976 4.36949L88.5039 21.8474H94.2653L98.375 0Z" fill="var(--fill-0, #02131D)"/>
<path id="Vector_8" fill-rule="evenodd" clip-rule="evenodd" d="M113.842 11.6491L112.886 16.7435C112.797 17.2301 112.508 17.4685 112.031 17.4685H104.11C103.632 17.4685 103.433 17.2301 103.533 16.7435L104.488 11.6491C104.577 11.1625 104.866 10.9242 105.344 10.9242H113.264C113.742 10.9242 113.941 11.1625 113.842 11.6491ZM114.797 6.55469H105.443C101.602 6.55469 99.4131 8.01449 98.8658 10.9242L97.6319 17.4784C97.0846 20.3881 98.7265 21.8479 102.567 21.8479H111.921C115.762 21.8479 117.951 20.3881 118.498 17.4784L119.732 10.9242C120.28 8.01449 118.638 6.55469 114.797 6.55469Z" fill="var(--fill-0, #00D6FE)"/>
<path id="Vector_9" fill-rule="evenodd" clip-rule="evenodd" d="M126.968 10.9237L125.735 17.4779C125.187 20.3876 126.829 21.8474 130.67 21.8474H136.432C136.979 18.9377 135.337 17.4779 131.496 17.4779L132.73 10.9237C136.571 10.9237 138.76 9.46391 139.307 6.55423H133.546L133.954 4.36949C134.501 1.45981 132.859 0 129.018 0L127.784 6.55423C123.943 6.55423 121.754 8.01403 121.207 10.9237H126.968Z" fill="var(--fill-0, #02131D)"/>
</g>
<defs>
<clipPath id="clip0_0_20">
<rect width="139.309" height="21.8474" fill="white"/>
</clipPath>
</defs>
</svg>
