<svg preserveAspectRatio="xMidYMid meet" width="100%" height="100%" overflow="visible" style="display: block;" viewBox="0 0 27.5243 27.5243" fill="none" xmlns="http://www.w3.org/2000/svg">
<g id="Filled/Phone">
<path id="Vector" d="M21.6711 16.5036C20.5081 15.3906 18.6588 15.3945 17.4987 16.5095L15.6406 18.0746C12.5229 16.7521 10.3041 14.5301 8.88275 11.3062L10.4425 9.45738C10.9855 8.8931 11.2839 8.15242 11.2839 7.3669C11.2839 6.58139 10.9875 5.84753 10.4484 5.28325C10.4484 5.28325 8.64294 2.93743 8.61271 2.90721C7.43605 1.73089 5.52238 1.73187 4.39445 2.86141L3.27335 3.83989C2.15322 4.96066 1.53516 6.47419 1.53516 8.10466C1.53516 15.5466 11.4067 25.4152 18.8508 25.4152C20.4818 25.4152 21.9967 24.7973 23.1607 23.6288L24.0498 22.6055C25.2245 21.4292 25.2245 19.5151 24.0498 18.3388C24.0196 18.3095 21.6711 16.5036 21.6711 16.5036Z" fill="var(--fill-0, #00D6FE)"/>
</g>
</svg>
