<svg preserveAspectRatio="xMidYMid meet" width="100%" height="100%" overflow="visible" style="display: block;" viewBox="0 0 128.765 20.1937" fill="none" xmlns="http://www.w3.org/2000/svg">
<g id="Layer_1" clip-path="url(#clip0_0_7)">
<path id="Vector" fill-rule="evenodd" clip-rule="evenodd" d="M18.1839 8.07746H15.535C12.0032 8.07746 9.97975 9.42677 9.47389 12.1162H18.0919C21.6238 12.1162 23.6472 10.7669 24.1531 8.07746L24.9073 4.03872C25.4131 1.34928 23.8955 -2.64657e-05 20.3637 -2.64657e-05H3.78985L0.00048437 20.1937C3.53232 20.1937 5.55576 18.8444 6.06162 16.155L8.3334 4.03872H18.9381C19.3796 4.03872 19.5543 4.25901 19.4715 4.70878L18.9657 7.39822C18.8829 7.84799 18.6162 8.06828 18.1747 8.06828L18.1839 8.07746Z" fill="var(--fill-0, #02131D)"/>
<path id="Vector_2" fill-rule="evenodd" clip-rule="evenodd" d="M24.5295 20.1931C28.0797 20.1931 30.1032 18.8438 30.609 16.1543L32.5129 6.05745H27.1876L24.5295 20.1931Z" fill="var(--fill-0, #02131D)"/>
<path id="Vector_3" fill-rule="evenodd" clip-rule="evenodd" d="M28.3289 1.78489e-05H33.6543L32.8909 4.03876H27.5655L28.3289 1.78489e-05Z" fill="var(--fill-0, #02131D)"/>
<path id="Vector_4" fill-rule="evenodd" clip-rule="evenodd" d="M31.5655 20.1931H37.5531L42.6669 16.0166L46.2079 20.1931H52.1955L46.2079 13.1253L54.8535 6.05745H51.524C49.7489 6.05745 48.075 6.72752 46.5114 8.07682L43.7522 10.2339L41.8299 8.07682C40.7538 6.72752 39.3282 6.05745 37.5531 6.05745H34.2236L40.2111 13.1253L31.5655 20.1931Z" fill="var(--fill-0, #02131D)"/>
<path id="Vector_5" fill-rule="evenodd" clip-rule="evenodd" d="M68.5668 10.0962C68.484 10.546 68.2173 11.7117 67.7758 11.7117H65.1177C61.8802 11.7117 59.8292 12.2991 59.2037 14.1349H59.1577L59.7924 10.7663C59.8751 10.3165 60.1419 10.0962 60.5834 10.0962H68.5668ZM74.0117 9.42613H73.9657C74.1036 7.18647 72.5585 6.05745 69.321 6.05745H60.6753C57.1251 6.05745 55.1017 7.40676 54.5958 10.0962L53.4553 16.1543C52.9494 18.8438 54.467 20.1931 58.0173 20.1931H66.6629C70.2131 20.1931 72.2366 18.8438 72.7424 16.1543H59.4337C58.9922 16.1543 58.8082 15.934 58.891 15.4843L59.0198 14.8142H67.6654C71.2156 14.8142 73.2391 13.4649 73.7449 10.7754L74.0025 9.42613H74.0117Z" fill="var(--fill-0, #02131D)"/>
<path id="Vector_6" fill-rule="evenodd" clip-rule="evenodd" d="M83.0272 1.78489e-05C79.4769 1.78489e-05 77.4535 1.34933 76.9476 4.03876L73.9033 20.1937H79.2286L83.0272 1.78489e-05Z" fill="var(--fill-0, #02131D)"/>
<path id="Vector_7" fill-rule="evenodd" clip-rule="evenodd" d="M90.9278 1.78489e-05C87.3775 1.78489e-05 85.3541 1.34933 84.8482 4.03876L81.8039 20.1937H87.1292L90.9278 1.78489e-05Z" fill="var(--fill-0, #02131D)"/>
<path id="Vector_8" fill-rule="evenodd" clip-rule="evenodd" d="M105.228 10.7663L104.345 15.4751C104.262 15.9248 103.995 16.1451 103.554 16.1451H96.2328C95.7913 16.1451 95.6074 15.9248 95.6994 15.4751L96.5823 10.7663C96.6651 10.3165 96.9318 10.0962 97.3733 10.0962H104.694C105.136 10.0962 105.32 10.3165 105.228 10.7663ZM106.111 6.05745H97.4653C93.915 6.05745 91.8916 7.40676 91.3857 10.0962L90.2453 16.1543C89.7394 18.8438 91.257 20.1931 94.8072 20.1931H103.453C107.003 20.1931 109.026 18.8438 109.532 16.1543L110.673 10.0962C111.179 7.40676 109.661 6.05745 106.111 6.05745Z" fill="var(--fill-0, #00D6FE)"/>
<path id="Vector_9" fill-rule="evenodd" clip-rule="evenodd" d="M117.36 10.0969L116.22 16.155C115.714 18.8444 117.231 20.1937 120.782 20.1937H126.107C126.613 17.5043 125.095 16.155 121.545 16.155L122.686 10.0969C126.236 10.0969 128.259 8.74757 128.765 6.05814H123.44L123.817 4.03876C124.323 1.34933 122.805 1.78489e-05 119.255 1.78489e-05L118.114 6.05814C114.564 6.05814 112.541 7.40744 112.035 10.0969H117.36Z" fill="var(--fill-0, #02131D)"/>
</g>
<defs>
<clipPath id="clip0_0_7">
<rect width="128.765" height="20.1937" fill="white"/>
</clipPath>
</defs>
</svg>
