<svg preserveAspectRatio="xMidYMid meet" width="100%" height="100%" overflow="visible" style="display: block;" viewBox="0 0 75 11.762" fill="none" xmlns="http://www.w3.org/2000/svg">
<g id="Layer_1" clip-path="url(#clip0_0_24)">
<path id="Vector" fill-rule="evenodd" clip-rule="evenodd" d="M10.5911 4.7048H9.04821C6.99107 4.7048 5.8125 5.49071 5.51786 7.0572H10.5375C12.5946 7.0572 13.7732 6.27128 14.0679 4.7048L14.5071 2.3524C14.8018 0.785915 13.9179 0 11.8607 0H2.20714L0 11.762C2.05714 11.762 3.23571 10.9761 3.53036 9.40959L4.85357 2.3524H11.0304C11.2875 2.3524 11.3893 2.48071 11.3411 2.74268L11.0464 4.30917C10.9982 4.57114 10.8429 4.69945 10.5857 4.69945L10.5911 4.7048Z" fill="var(--fill-0, #02131D)"/>
<path id="Vector_2" fill-rule="evenodd" clip-rule="evenodd" d="M14.2874 11.7625C16.3552 11.7625 17.5338 10.9766 17.8284 9.41013L18.9374 3.52914H15.8356L14.2874 11.7625Z" fill="var(--fill-0, #02131D)"/>
<path id="Vector_3" fill-rule="evenodd" clip-rule="evenodd" d="M16.5001 0H19.6019L19.1572 2.3524H16.0554L16.5001 0Z" fill="var(--fill-0, #02131D)"/>
<path id="Vector_4" fill-rule="evenodd" clip-rule="evenodd" d="M18.3857 11.7625H21.8732L24.8518 9.32994L26.9143 11.7625H30.4018L26.9143 7.64584L31.95 3.52914H30.0107C28.9768 3.52914 28.0018 3.91942 27.091 4.70534L25.4839 5.96173L24.3643 4.70534C23.7375 3.91942 22.9071 3.52914 21.8732 3.52914H19.9339L23.4214 7.64584L18.3857 11.7625Z" fill="var(--fill-0, #02131D)"/>
<path id="Vector_5" fill-rule="evenodd" clip-rule="evenodd" d="M39.9377 5.88154C39.8894 6.14351 39.7341 6.8225 39.4769 6.8225H37.9287C36.043 6.8225 34.8484 7.16466 34.4841 8.23393H34.4573L34.8269 6.27182C34.8752 6.00985 35.0305 5.88154 35.2877 5.88154H39.9377ZM43.1091 5.49125H43.0823C43.1627 4.18674 42.2627 3.52914 40.3769 3.52914H35.3412C33.2734 3.52914 32.0948 4.31505 31.8002 5.88154L31.1359 9.41013C30.8412 10.9766 31.7252 11.7625 33.793 11.7625H38.8287C40.8966 11.7625 42.0752 10.9766 42.3698 9.41013H34.618C34.3609 9.41013 34.2537 9.28182 34.3019 9.01985L34.3769 8.62957H39.4127C41.4805 8.62957 42.6591 7.84365 42.9537 6.27717L43.1037 5.49125H43.1091Z" fill="var(--fill-0, #02131D)"/>
<path id="Vector_6" fill-rule="evenodd" clip-rule="evenodd" d="M48.3585 0C46.2907 0 45.1121 0.785915 44.8175 2.3524L43.0442 11.762H46.146L48.3585 0Z" fill="var(--fill-0, #02131D)"/>
<path id="Vector_7" fill-rule="evenodd" clip-rule="evenodd" d="M52.9612 0C50.8933 0 49.7147 0.785915 49.4201 2.3524L47.6469 11.762H50.7487L52.9612 0Z" fill="var(--fill-0, #02131D)"/>
<path id="Vector_8" fill-rule="evenodd" clip-rule="evenodd" d="M61.2905 6.27182L60.7762 9.0145C60.7279 9.27648 60.5726 9.40479 60.3154 9.40479H56.0512C55.794 9.40479 55.6869 9.27648 55.7405 9.0145L56.2547 6.27182C56.303 6.00985 56.4583 5.88154 56.7155 5.88154H60.9797C61.2369 5.88154 61.344 6.00985 61.2905 6.27182ZM61.8047 3.52914H56.769C54.7012 3.52914 53.5226 4.31505 53.228 5.88154L52.5637 9.41013C52.269 10.9766 53.153 11.7625 55.2208 11.7625H60.2565C62.3244 11.7625 63.5029 10.9766 63.7976 9.41013L64.4619 5.88154C64.7565 4.31505 63.8726 3.52914 61.8047 3.52914Z" fill="var(--fill-0, #00D6FE)"/>
<path id="Vector_9" fill-rule="evenodd" clip-rule="evenodd" d="M68.3571 5.881L67.6928 9.40959C67.3981 10.9761 68.2821 11.762 70.3499 11.762H73.4517C73.7463 10.1955 72.8624 9.40959 70.7946 9.40959L71.4588 5.881C73.5267 5.881 74.7053 5.09508 74.9999 3.5286H71.8981L72.1178 2.3524C72.4124 0.785915 71.5285 0 69.4606 0L68.7963 3.5286C66.7285 3.5286 65.5499 4.31451 65.2553 5.881H68.3571Z" fill="var(--fill-0, #02131D)"/>
</g>
<defs>
<clipPath id="clip0_0_24">
<rect width="75" height="11.762" fill="white"/>
</clipPath>
</defs>
</svg>
