<svg preserveAspectRatio="none" width="100%" height="100%" overflow="visible" style="display: block;" viewBox="0 0 111.652 17.5416" fill="none" xmlns="http://www.w3.org/2000/svg">
<g id="Layer_1" clip-path="url(#clip0_0_4)">
<path id="Vector" fill-rule="evenodd" clip-rule="evenodd" d="M15.7669 7.01664H13.4701C10.4076 7.01664 8.65306 8.18873 8.21442 10.525H15.6872C18.7496 10.525 20.5042 9.35286 20.9428 7.01664L21.5968 3.50832C22.0354 1.1721 20.7195 0 17.657 0H3.28577L0 17.5416C3.06246 17.5416 4.817 16.3695 5.25564 14.0333L7.2255 3.50832H16.4209C16.8037 3.50832 16.9552 3.69968 16.8834 4.09038L16.4448 6.4266C16.373 6.8173 16.1417 7.00866 15.7589 7.00866L15.7669 7.01664Z" fill="var(--fill-0, #02131D)"/>
<path id="Vector_2" fill-rule="evenodd" clip-rule="evenodd" d="M21.2697 17.5422C24.3481 17.5422 26.1027 16.3701 26.5413 14.0339L28.1921 5.26306H23.5745L21.2697 17.5422Z" fill="var(--fill-0, #02131D)"/>
<path id="Vector_3" fill-rule="evenodd" clip-rule="evenodd" d="M24.5649 0H29.1825L28.5206 3.50832H23.9029L24.5649 0Z" fill="var(--fill-0, #02131D)"/>
<path id="Vector_4" fill-rule="evenodd" clip-rule="evenodd" d="M27.372 17.5422H32.5638L36.998 13.9143L40.0685 17.5422H45.2603L40.0685 11.4026L47.5651 5.26306H44.6781C43.1389 5.26306 41.6874 5.84512 40.3316 7.01722L37.9391 8.89098L36.2723 7.01722C35.3392 5.84512 34.103 5.26306 32.5638 5.26306H29.6768L34.8687 11.4026L27.372 17.5422Z" fill="var(--fill-0, #02131D)"/>
<path id="Vector_5" fill-rule="evenodd" clip-rule="evenodd" d="M59.4555 8.77138C59.3838 9.16208 59.1525 10.1747 58.7697 10.1747H56.4648C53.6576 10.1747 51.8791 10.685 51.3368 12.2797H51.2969L51.8472 9.35344C51.919 8.96274 52.1503 8.77138 52.5331 8.77138H59.4555ZM64.1768 8.18932H64.1369C64.2566 6.2438 62.9167 5.26306 60.1095 5.26306H52.6128C49.5344 5.26306 47.7799 6.43516 47.3412 8.77138L46.3523 14.0339C45.9137 16.3701 47.2296 17.5422 50.308 17.5422H57.8047C60.8831 17.5422 62.6376 16.3701 63.0762 14.0339H51.5362C51.1534 14.0339 50.9939 13.8425 51.0656 13.4518L51.1773 12.8697H58.674C61.7524 12.8697 63.5069 11.6976 63.9455 9.36141L64.1688 8.18932H64.1768Z" fill="var(--fill-0, #02131D)"/>
<path id="Vector_6" fill-rule="evenodd" clip-rule="evenodd" d="M71.9923 0C68.9139 0 67.1593 1.1721 66.7207 3.50832L64.0809 17.5416H68.6985L71.9923 0Z" fill="var(--fill-0, #02131D)"/>
<path id="Vector_7" fill-rule="evenodd" clip-rule="evenodd" d="M78.8421 0C75.7637 0 74.0091 1.1721 73.5705 3.50832L70.9307 17.5416H75.5483L78.8421 0Z" fill="var(--fill-0, #02131D)"/>
<path id="Vector_8" fill-rule="evenodd" clip-rule="evenodd" d="M91.2416 9.35344L90.476 13.4438C90.4042 13.8345 90.173 14.0259 89.7901 14.0259H83.4419C83.0591 14.0259 82.8996 13.8345 82.9794 13.4438L83.745 9.35344C83.8167 8.96274 84.048 8.77138 84.4308 8.77138H90.7791C91.1619 8.77138 91.3214 8.96274 91.2416 9.35344ZM92.0072 5.26306H84.5106C81.4322 5.26306 79.6776 6.43516 79.239 8.77138L78.2501 14.0339C77.8114 16.3701 79.1274 17.5422 82.2058 17.5422H89.7024C92.7808 17.5422 94.5354 16.3701 94.974 14.0339L95.9629 8.77138C96.4016 6.43516 95.0857 5.26306 92.0072 5.26306Z" fill="var(--fill-0, #00D6FE)"/>
<path id="Vector_9" fill-rule="evenodd" clip-rule="evenodd" d="M101.765 8.77079L100.776 14.0333C100.338 16.3695 101.653 17.5416 104.732 17.5416H109.35C109.788 15.2054 108.472 14.0333 105.394 14.0333L106.383 8.77079C109.461 8.77079 111.216 7.5987 111.654 5.26248H107.037L107.364 3.50832C107.802 1.1721 106.486 0 103.408 0L102.419 5.26248C99.3407 5.26248 97.5861 6.43457 97.1475 8.77079H101.765Z" fill="var(--fill-0, #02131D)"/>
</g>
<defs>
<clipPath id="clip0_0_4">
<rect width="111.652" height="17.5416" fill="white"/>
</clipPath>
</defs>
</svg>
