<svg preserveAspectRatio="xMidYMid meet" width="100%" height="100%" overflow="visible" style="display: block;" viewBox="0 0 326.196 51.1562" fill="none" xmlns="http://www.w3.org/2000/svg">
<g id="Layer_1" clip-path="url(#clip0_0_44)">
<path id="Vector" fill-rule="evenodd" clip-rule="evenodd" d="M46.0631 20.4625H39.3528C30.4057 20.4625 25.2797 23.8807 23.9982 30.6937H45.8301C54.7772 30.6937 59.9031 27.2756 61.1846 20.4625L63.0952 10.2312C64.3767 3.41817 60.5322 0 51.5851 0H9.59899L-0.000505515 51.1562C8.94659 51.1562 14.0725 47.7381 15.354 40.925L21.1091 10.2312H47.9737C49.092 10.2312 49.5347 10.7893 49.325 11.9287L48.0436 18.7418C47.8339 19.8812 47.1582 20.4392 46.0398 20.4392L46.0631 20.4625Z" fill="var(--fill-0, #02131D)"/>
<path id="Vector_2" fill-rule="evenodd" clip-rule="evenodd" d="M62.1393 51.1586C71.133 51.1586 76.2589 47.7404 77.5404 40.9274L82.3635 15.3492H68.8729L62.1393 51.1586Z" fill="var(--fill-0, #02131D)"/>
<path id="Vector_3" fill-rule="evenodd" clip-rule="evenodd" d="M71.7631 0H85.2536L83.3197 10.2313H69.8292L71.7631 0Z" fill="var(--fill-0, #02131D)"/>
<path id="Vector_4" fill-rule="evenodd" clip-rule="evenodd" d="M79.9641 51.1586H95.1322L108.087 40.5786L117.057 51.1586H132.225L117.057 33.2539L138.959 15.3492H130.524C126.028 15.3492 121.787 17.0467 117.826 20.4649L110.836 25.9293L105.967 20.4649C103.24 17.0467 99.629 15.3492 95.1322 15.3492H86.6977L101.866 33.2539L79.9641 51.1586Z" fill="var(--fill-0, #02131D)"/>
<path id="Vector_5" fill-rule="evenodd" clip-rule="evenodd" d="M173.7 25.5805C173.49 26.7199 172.814 29.673 171.696 29.673H164.962C156.761 29.673 151.565 31.1612 149.981 35.8117H149.864L151.472 27.2779C151.681 26.1385 152.357 25.5805 153.476 25.5805H173.7ZM187.493 23.883H187.377C187.726 18.2093 183.812 15.3492 175.61 15.3492H153.709C144.715 15.3492 139.589 18.7674 138.307 25.5805L135.418 40.9274C134.137 47.7404 137.981 51.1586 146.975 51.1586H168.877C177.87 51.1586 182.996 47.7404 184.278 40.9274H150.563C149.445 40.9274 148.979 40.3693 149.188 39.2299L149.515 37.5324H171.416C180.41 37.5324 185.536 34.1143 186.817 27.3012L187.47 23.883H187.493Z" fill="var(--fill-0, #02131D)"/>
<path id="Vector_6" fill-rule="evenodd" clip-rule="evenodd" d="M210.324 0C201.331 0 196.205 3.41817 194.923 10.2312L187.211 51.1562H200.702L210.324 0Z" fill="var(--fill-0, #02131D)"/>
<path id="Vector_7" fill-rule="evenodd" clip-rule="evenodd" d="M230.343 0C221.349 0 216.223 3.41817 214.942 10.2312L207.229 51.1562H220.72L230.343 0Z" fill="var(--fill-0, #02131D)"/>
<path id="Vector_8" fill-rule="evenodd" clip-rule="evenodd" d="M266.569 27.2779L264.332 39.2066C264.123 40.346 263.447 40.9041 262.329 40.9041H243.782C242.664 40.9041 242.198 40.346 242.431 39.2066L244.667 27.2779C244.877 26.1385 245.553 25.5805 246.671 25.5805H265.218C266.336 25.5805 266.802 26.1385 266.569 27.2779ZM268.806 15.3492H246.904C237.91 15.3492 232.784 18.7674 231.503 25.5805L228.614 40.9274C227.332 47.7404 231.177 51.1586 240.17 51.1586H262.072C271.066 51.1586 276.192 47.7404 277.473 40.9274L280.363 25.5805C281.644 18.7674 277.8 15.3492 268.806 15.3492Z" fill="var(--fill-0, #00D6FE)"/>
<path id="Vector_9" fill-rule="evenodd" clip-rule="evenodd" d="M297.304 25.5781L294.415 40.925C293.133 47.7381 296.978 51.1562 305.971 51.1562H319.462C320.743 44.3432 316.899 40.925 307.905 40.925L310.794 25.5781C319.788 25.5781 324.914 22.16 326.195 15.3469H312.705L313.66 10.2312C314.942 3.41817 311.097 0 302.104 0L299.214 15.3469C290.221 15.3469 285.095 18.765 283.813 25.5781H297.304Z" fill="var(--fill-0, #02131D)"/>
</g>
<defs>
<clipPath id="clip0_0_44">
<rect width="326.196" height="51.1562" fill="white"/>
</clipPath>
</defs>
</svg>
