<svg preserveAspectRatio="xMidYMid meet" width="100%" height="100%" overflow="visible" style="display: block;" viewBox="0 0 216.272 60.5901" fill="none" xmlns="http://www.w3.org/2000/svg">
<g id="Detailed Icons">
<path id="Vector" fill-rule="evenodd" clip-rule="evenodd" d="M30.5414 24.2353H26.0924C20.1603 24.2353 16.7618 28.2837 15.9121 36.353H30.3869C36.319 36.353 39.7175 32.3046 40.5672 24.2353L41.8339 12.1177C42.6835 4.0484 40.1346 0 34.2026 0H6.36526L0.000678168 60.5883C5.93271 60.5883 9.33128 56.5399 10.1809 48.4707L13.9966 12.1177H31.8081C32.5496 12.1177 32.8432 12.7786 32.7041 14.1281L31.8545 22.1974C31.7154 23.5468 31.2675 24.2078 30.526 24.2078L30.5414 24.2353Z" fill="var(--fill-0, #02131D)"/>
<path id="Vector_2" fill-rule="evenodd" clip-rule="evenodd" d="M41.1993 60.5901C47.1622 60.5901 50.5608 56.5417 51.4104 48.4724L54.6081 18.1783H45.6637L41.1993 60.5901Z" fill="var(--fill-0, #02131D)"/>
<path id="Vector_3" fill-rule="evenodd" clip-rule="evenodd" d="M47.5799 0H56.5243L55.2421 12.1177H46.2977L47.5799 0Z" fill="var(--fill-0, #02131D)"/>
<path id="Vector_4" fill-rule="evenodd" clip-rule="evenodd" d="M53.0168 60.5901H63.0735L71.6625 48.0593L77.61 60.5901H87.6667L77.61 39.3842L92.1312 18.1783H86.539C83.5575 18.1783 80.746 20.1887 78.1198 24.2371L73.4854 30.709L70.2568 24.2371C68.4494 20.1887 66.0549 18.1783 63.0735 18.1783H57.4813L67.5379 39.3842L53.0168 60.5901Z" fill="var(--fill-0, #02131D)"/>
<path id="Vector_5" fill-rule="evenodd" clip-rule="evenodd" d="M115.164 30.2959C115.024 31.6454 114.576 35.143 113.835 35.143H109.371C103.933 35.143 100.488 36.9056 99.4374 42.4136H99.3602L100.426 32.3064C100.565 30.9569 101.013 30.2959 101.755 30.2959H115.164ZM124.309 28.2855H124.231C124.463 21.5657 121.868 18.1783 116.43 18.1783H101.909C95.9462 18.1783 92.5476 22.2267 91.698 30.2959L89.7824 48.4724C88.9328 56.5417 91.4817 60.5901 97.4446 60.5901H111.966C117.929 60.5901 121.327 56.5417 122.177 48.4724H99.8236C99.0821 48.4724 98.7732 47.8115 98.9122 46.462L99.1285 44.4516H113.65C119.613 44.4516 123.011 40.4032 123.861 32.3339L124.293 28.2855H124.309Z" fill="var(--fill-0, #02131D)"/>
<path id="Vector_6" fill-rule="evenodd" clip-rule="evenodd" d="M139.45 0C133.487 0 130.089 4.0484 129.239 12.1177L124.126 60.5883H133.07L139.45 0Z" fill="var(--fill-0, #02131D)"/>
<path id="Vector_7" fill-rule="evenodd" clip-rule="evenodd" d="M152.721 0C146.758 0 143.359 4.0484 142.509 12.1177L137.396 60.5883H146.341L152.721 0Z" fill="var(--fill-0, #02131D)"/>
<path id="Vector_8" fill-rule="evenodd" clip-rule="evenodd" d="M176.74 32.3064L175.257 46.4345C175.118 47.7839 174.67 48.4449 173.929 48.4449H161.632C160.891 48.4449 160.582 47.7839 160.736 46.4345L162.219 32.3064C162.358 30.9569 162.806 30.2959 163.548 30.2959H175.844C176.586 30.2959 176.895 30.9569 176.74 32.3064ZM178.223 18.1783H163.702C157.739 18.1783 154.341 22.2267 153.491 30.2959L151.575 48.4724C150.726 56.5417 153.275 60.5901 159.238 60.5901H173.759C179.722 60.5901 183.12 56.5417 183.97 48.4724L185.885 30.2959C186.735 22.2267 184.186 18.1783 178.223 18.1783Z" fill="var(--fill-0, #00D6FE)"/>
<path id="Vector_9" fill-rule="evenodd" clip-rule="evenodd" d="M197.115 30.2942L195.199 48.4707C194.35 56.5399 196.899 60.5883 202.861 60.5883H211.806C212.656 52.5191 210.107 48.4707 204.144 48.4707L206.059 30.2942C212.022 30.2942 215.421 26.2458 216.27 18.1765H207.326L207.959 12.1177C208.809 4.0484 206.26 0 200.297 0L198.382 18.1765C192.419 18.1765 189.02 22.2249 188.17 30.2942H197.115Z" fill="var(--fill-0, #02131D)"/>
</g>
</svg>
