<svg preserveAspectRatio="xMidYMid meet" width="100%" height="100%" overflow="visible" style="display: block;" viewBox="0 0 326.196 51.1562" fill="none" xmlns="http://www.w3.org/2000/svg">
<g id="Layer_1" clip-path="url(#clip0_0_24)">
<path id="Vector" d="M51.5854 0.5C56.0189 0.50004 59.0626 1.35179 60.8432 2.93457C62.5869 4.48461 63.225 6.83705 62.604 10.1387V10.1396L60.6929 20.3701C60.0736 23.6625 58.5382 26.095 56.105 27.7168C53.6565 29.3486 50.2476 30.1933 45.8305 30.1934H24.6138C25.3002 27.2 26.7936 24.9623 29.0786 23.4395C31.5272 21.8077 34.9358 20.9629 39.353 20.9629H47.272L47.0727 20.7637C47.3023 20.6772 47.5153 20.5597 47.7046 20.4004C48.1524 20.0234 48.4163 19.4803 48.5356 18.832L48.5347 18.8311L49.8169 12.0215V12.0195C49.932 11.3938 49.8957 10.7909 49.5386 10.3418C49.1765 9.88659 48.5994 9.73152 47.9741 9.73145H20.6938L20.6177 10.1387L14.8628 40.833C14.2434 44.1253 12.7072 46.558 10.2739 48.1797C7.93804 49.7364 4.72838 50.5744 0.60301 50.6484L10.0141 0.5H51.5854Z" stroke="var(--stroke-0, black)"/>
<path id="Vector_2" d="M81.7604 15.8492L77.0494 40.8346C76.4302 44.127 74.8937 46.5595 72.4547 48.1813C70.1128 49.7385 66.8914 50.5773 62.7428 50.651L69.2877 15.8492H81.7604Z" stroke="var(--stroke-0, black)"/>
<path id="Vector_3" d="M84.6505 0.5L82.9054 9.73145H70.4327L72.1768 0.5H84.6505Z" stroke="var(--stroke-0, black)"/>
<path id="Vector_4" d="M95.132 15.8492C99.4827 15.8492 102.948 17.4824 105.575 20.777L105.584 20.7877L105.593 20.7975L110.463 26.2623L110.775 26.6119L111.144 26.3229L118.134 20.859L118.144 20.8512L118.153 20.8434C122.037 17.4908 126.166 15.8492 130.525 15.8492H137.558L116.74 32.8668L116.347 33.1891L116.676 33.5768L131.147 50.6588H117.289L108.468 40.2555L108.151 39.8805L107.771 40.191L94.9533 50.6588H81.3654L102.182 33.6412L102.576 33.319L102.247 32.9303L87.7766 15.8492H95.132Z" stroke="var(--stroke-0, black)"/>
<path id="Vector_5" d="M153.708 15.8492H175.611C179.671 15.8493 182.573 16.5608 184.407 17.8932C186.202 19.1979 187.044 21.1512 186.877 23.8522L186.845 24.3834H186.866L186.326 27.2076V27.2086C185.707 30.501 184.171 32.9335 181.732 34.5553C179.277 36.1872 175.857 37.0328 171.416 37.0328H149.102L149.024 37.4381L148.698 39.1354L148.697 39.1393C148.58 39.7704 148.625 40.3742 148.991 40.8219C149.358 41.2722 149.937 41.4273 150.563 41.4274H183.662C182.976 44.4207 181.483 46.6584 179.193 48.1813C176.738 49.8133 173.317 50.6588 168.876 50.6588H146.975C142.517 50.6588 139.461 49.8065 137.675 48.2232C135.926 46.6733 135.289 44.3215 135.909 41.0201L138.799 25.6734V25.6725C139.418 22.3803 140.954 19.9485 143.393 18.3268C145.694 16.7967 148.844 15.9578 152.888 15.859L153.708 15.8492ZM153.476 25.0807C152.834 25.0807 152.259 25.2421 151.811 25.6197C151.363 25.9967 151.099 26.5391 150.98 27.1871L149.372 35.7193L149.261 36.3121H150.338L150.453 35.9732C151.188 33.8184 152.753 32.379 155.167 31.4664C157.604 30.5455 160.88 30.1735 164.962 30.1734H171.696C172.211 30.1734 172.593 29.8347 172.85 29.4967C173.116 29.1466 173.332 28.6905 173.506 28.232C173.857 27.3093 174.085 26.2508 174.192 25.6705L174.3 25.0807H153.476Z" stroke="var(--stroke-0, black)"/>
<path id="Vector_6" d="M200.286 50.6562H187.814L195.414 10.3242V10.3232C196.034 7.03097 197.57 4.59926 200.009 2.97754C202.351 1.42038 205.572 0.580675 209.72 0.506836L200.286 50.6562Z" stroke="var(--stroke-0, black)"/>
<path id="Vector_7" d="M220.305 50.6562H207.832L215.432 10.3242V10.3232C216.052 7.03096 217.588 4.59926 220.027 2.97754C222.369 1.42038 225.59 0.580675 229.738 0.506836L220.305 50.6562Z" stroke="var(--stroke-0, black)"/>
<path id="Vector_8" d="M246.904 15.8492H268.806C273.264 15.8493 276.32 16.7006 278.106 18.2838C279.855 19.8338 280.493 22.1864 279.872 25.4879L276.982 40.8346C276.363 44.1269 274.827 46.5595 272.388 48.1813C269.934 49.8133 266.513 50.6588 262.072 50.6588H240.17C235.713 50.6588 232.657 49.8065 230.871 48.2232C229.122 46.6733 228.484 44.3215 229.105 41.0201L231.995 25.6734V25.6725C232.614 22.3803 234.15 19.9485 236.588 18.3268C238.889 16.7967 242.039 15.9578 246.084 15.859L246.904 15.8492ZM246.671 25.0807C246.029 25.0807 245.455 25.2421 245.006 25.6197C244.559 25.9967 244.295 26.5391 244.175 27.1871L241.941 39.1061C241.812 39.7373 241.847 40.3449 242.211 40.7965C242.576 41.2496 243.157 41.4039 243.782 41.4039H262.329C262.971 41.4039 263.544 41.2424 263.993 40.8649C264.44 40.4881 264.704 39.9461 264.824 39.2984L267.058 27.3775L267.059 27.3785C267.188 26.7473 267.154 26.1397 266.79 25.6881C266.424 25.2348 265.842 25.0807 265.217 25.0807H246.671Z" stroke="var(--stroke-0, black)"/>
<path id="Vector_9" d="M302.516 0.504883C306.75 0.556217 309.672 1.40091 311.403 2.93457C313.152 4.48459 313.79 6.83708 313.169 10.1387V10.1396L312.214 15.2549L312.103 15.8467H325.58C324.893 18.8401 323.4 21.0777 321.11 22.6006C318.656 24.2326 315.236 25.0781 310.795 25.0781H310.38L310.302 25.4854L307.414 40.832L307.302 41.4248H307.905C312.363 41.4248 315.418 42.2771 317.205 43.8604C318.881 45.3459 319.534 47.5675 319.039 50.6562H305.971C301.514 50.6562 298.458 49.8047 296.672 48.2217C294.923 46.6717 294.285 44.3192 294.906 41.0176L297.795 25.6709L297.907 25.0781H284.428C285.115 22.0848 286.608 19.8471 288.898 18.3242C291.353 16.6922 294.774 15.8467 299.215 15.8467H299.629L299.706 15.4395L302.516 0.504883Z" stroke="var(--stroke-0, black)"/>
</g>
<defs>
<clipPath id="clip0_0_24">
<rect width="326.196" height="51.1562" fill="white"/>
</clipPath>
</defs>
</svg>
