<svg preserveAspectRatio="xMidYMid meet" width="100%" height="100%" overflow="visible" style="display: block;" viewBox="0 0 100 15.6827" fill="none" xmlns="http://www.w3.org/2000/svg">
<g id="Layer_1" clip-path="url(#clip0_0_8)">
<path id="Vector" fill-rule="evenodd" clip-rule="evenodd" d="M14.1214 6.27306H12.0643C9.32143 6.27306 7.75 7.32095 7.35714 9.40959H14.05C16.7929 9.40959 18.3643 8.36171 18.7571 6.27306L19.3429 3.13653C19.7357 1.04789 18.5571 0 15.8143 0H2.94286L0 15.6827C2.74286 15.6827 4.31429 14.6348 4.70714 12.5461L6.47143 3.13653H14.7071C15.05 3.13653 15.1857 3.30761 15.1214 3.65691L14.7286 5.74556C14.6643 6.09485 14.4571 6.26593 14.1143 6.26593L14.1214 6.27306Z" fill="var(--fill-0, #02131D)"/>
<path id="Vector_2" fill-rule="evenodd" clip-rule="evenodd" d="M19.0498 15.6834C21.807 15.6834 23.3784 14.6355 23.7712 12.5468L25.2498 4.70552H21.1141L19.0498 15.6834Z" fill="var(--fill-0, #02131D)"/>
<path id="Vector_3" fill-rule="evenodd" clip-rule="evenodd" d="M22.0001 0H26.1358L25.543 3.13653H21.4073L22.0001 0Z" fill="var(--fill-0, #02131D)"/>
<path id="Vector_4" fill-rule="evenodd" clip-rule="evenodd" d="M24.5142 15.6834H29.1642L33.1357 12.4399L35.8857 15.6834H40.5357L35.8857 10.1944L42.6 4.70552H40.0142C38.6357 4.70552 37.3357 5.2259 36.1214 6.27378L33.9785 7.94898L32.4857 6.27378C31.65 5.2259 30.5428 4.70552 29.1642 4.70552H26.5785L31.2285 10.1944L24.5142 15.6834Z" fill="var(--fill-0, #02131D)"/>
<path id="Vector_5" fill-rule="evenodd" clip-rule="evenodd" d="M53.2502 7.84205C53.1859 8.19134 52.9788 9.09666 52.6359 9.09666H50.5716C48.0574 9.09666 46.4645 9.55288 45.9788 10.9786H45.9431L46.4359 8.36243C46.5002 8.01313 46.7074 7.84205 47.0502 7.84205H53.2502ZM57.4788 7.32167H57.4431C57.5502 5.58232 56.3502 4.70552 53.8359 4.70552H47.1216C44.3645 4.70552 42.7931 5.7534 42.4002 7.84205L41.5145 12.5468C41.1216 14.6355 42.3002 15.6834 45.0574 15.6834H51.7716C54.5288 15.6834 56.1002 14.6355 56.4931 12.5468H46.1574C45.8145 12.5468 45.6716 12.3758 45.7359 12.0265L45.8359 11.5061H52.5502C55.3074 11.5061 56.8788 10.4582 57.2716 8.36956L57.4716 7.32167H57.4788Z" fill="var(--fill-0, #02131D)"/>
<path id="Vector_6" fill-rule="evenodd" clip-rule="evenodd" d="M64.478 0C61.7209 0 60.1495 1.04789 59.7566 3.13653L57.3923 15.6827H61.528L64.478 0Z" fill="var(--fill-0, #02131D)"/>
<path id="Vector_7" fill-rule="evenodd" clip-rule="evenodd" d="M70.6149 0C67.8577 0 66.2863 1.04789 65.8935 3.13653L63.5292 15.6827H67.6649L70.6149 0Z" fill="var(--fill-0, #02131D)"/>
<path id="Vector_8" fill-rule="evenodd" clip-rule="evenodd" d="M81.7206 8.36243L81.0349 12.0193C80.9706 12.3686 80.7635 12.5397 80.4206 12.5397H74.7349C74.392 12.5397 74.2492 12.3686 74.3206 12.0193L75.0063 8.36243C75.0706 8.01313 75.2777 7.84205 75.6206 7.84205H81.3063C81.6492 7.84205 81.792 8.01313 81.7206 8.36243ZM82.4063 4.70552H75.692C72.9349 4.70552 71.3635 5.7534 70.9706 7.84205L70.0849 12.5468C69.692 14.6355 70.8706 15.6834 73.6277 15.6834H80.342C83.0992 15.6834 84.6706 14.6355 85.0635 12.5468L85.9492 7.84205C86.342 5.7534 85.1635 4.70552 82.4063 4.70552Z" fill="var(--fill-0, #00D6FE)"/>
<path id="Vector_9" fill-rule="evenodd" clip-rule="evenodd" d="M91.1427 7.84133L90.257 12.5461C89.8642 14.6348 91.0427 15.6827 93.7999 15.6827H97.9356C98.3285 13.594 97.1499 12.5461 94.3927 12.5461L95.2785 7.84133C98.0356 7.84133 99.607 6.79344 99.9999 4.7048H95.8642L96.157 3.13653C96.5499 1.04789 95.3713 0 92.6142 0L91.7285 4.7048C88.9713 4.7048 87.3999 5.75268 87.007 7.84133H91.1427Z" fill="var(--fill-0, #02131D)"/>
</g>
<defs>
<clipPath id="clip0_0_8">
<rect width="100" height="15.6827" fill="white"/>
</clipPath>
</defs>
</svg>
