<svg preserveAspectRatio="xMidYMid meet" width="100%" height="100%" overflow="visible" style="display: block;" viewBox="0 0 150 23.524" fill="none" xmlns="http://www.w3.org/2000/svg">
<g id="Layer_1" clip-path="url(#clip0_0_34)">
<path id="Vector" fill-rule="evenodd" clip-rule="evenodd" d="M21.1821 9.40959H18.0964C13.9821 9.40959 11.625 10.9814 11.0357 14.1144H21.075C25.1893 14.1144 27.5464 12.5426 28.1357 9.40959L29.0143 4.7048C29.6036 1.57183 27.8357 0 23.7214 0H4.41429L0 23.524C4.11429 23.524 6.47143 21.9522 7.06072 18.8192L9.70714 4.7048H22.0607C22.575 4.7048 22.7786 4.96142 22.6821 5.48537L22.0929 8.61833C21.9964 9.14228 21.6857 9.3989 21.1714 9.3989L21.1821 9.40959Z" fill="var(--fill-0, #02131D)"/>
<path id="Vector_2" fill-rule="evenodd" clip-rule="evenodd" d="M28.5747 23.5251C32.7104 23.5251 35.0676 21.9532 35.6569 18.8203L37.8747 7.05828H31.6712L28.5747 23.5251Z" fill="var(--fill-0, #02131D)"/>
<path id="Vector_3" fill-rule="evenodd" clip-rule="evenodd" d="M33.0002 0H39.2037L38.3145 4.7048H32.1109L33.0002 0Z" fill="var(--fill-0, #02131D)"/>
<path id="Vector_4" fill-rule="evenodd" clip-rule="evenodd" d="M36.7714 23.5251H43.7464L49.7035 18.6599L53.8285 23.5251H60.8035L53.8285 15.2917L63.8999 7.05828H60.0214C57.9535 7.05828 56.0035 7.83885 54.1821 9.41068L50.9678 11.9235L48.7285 9.41068C47.4749 7.83885 45.8142 7.05828 43.7464 7.05828H39.8678L46.8428 15.2917L36.7714 23.5251Z" fill="var(--fill-0, #02131D)"/>
<path id="Vector_5" fill-rule="evenodd" clip-rule="evenodd" d="M79.8753 11.7631C79.7789 12.287 79.4682 13.645 78.9539 13.645H75.8575C72.086 13.645 69.6967 14.3293 68.9682 16.4679H68.9146L69.6539 12.5436C69.7503 12.0197 70.061 11.7631 70.5753 11.7631H79.8753ZM86.2182 10.9825H86.1646C86.3253 8.37348 84.5253 7.05828 80.7539 7.05828H70.6825C66.5467 7.05828 64.1896 8.63011 63.6003 11.7631L62.2717 18.8203C61.6825 21.9532 63.4503 23.5251 67.586 23.5251H77.6575C81.7932 23.5251 84.1503 21.9532 84.7396 18.8203H69.236C68.7217 18.8203 68.5075 18.5636 68.6039 18.0397L68.7539 17.2591H78.8253C82.961 17.2591 85.3182 15.6873 85.9075 12.5543L86.2075 10.9825H86.2182Z" fill="var(--fill-0, #02131D)"/>
<path id="Vector_6" fill-rule="evenodd" clip-rule="evenodd" d="M96.7171 0C92.5813 0 90.2242 1.57183 89.6349 4.7048L86.0885 23.524H92.2921L96.7171 0Z" fill="var(--fill-0, #02131D)"/>
<path id="Vector_7" fill-rule="evenodd" clip-rule="evenodd" d="M105.922 0C101.787 0 99.4295 1.57183 98.8402 4.7048L95.2938 23.524H101.497L105.922 0Z" fill="var(--fill-0, #02131D)"/>
<path id="Vector_8" fill-rule="evenodd" clip-rule="evenodd" d="M122.581 12.5436L121.552 18.029C121.456 18.553 121.145 18.8096 120.631 18.8096H112.102C111.588 18.8096 111.374 18.553 111.481 18.029L112.509 12.5436C112.606 12.0197 112.917 11.7631 113.431 11.7631H121.959C122.474 11.7631 122.688 12.0197 122.581 12.5436ZM123.609 7.05828H113.538C109.402 7.05828 107.045 8.63011 106.456 11.7631L105.127 18.8203C104.538 21.9532 106.306 23.5251 110.442 23.5251H120.513C124.649 23.5251 127.006 21.9532 127.595 18.8203L128.924 11.7631C129.513 8.63011 127.745 7.05828 123.609 7.05828Z" fill="var(--fill-0, #00D6FE)"/>
<path id="Vector_9" fill-rule="evenodd" clip-rule="evenodd" d="M136.714 11.762L135.386 18.8192C134.796 21.9522 136.564 23.524 140.7 23.524H146.903C147.493 20.391 145.725 18.8192 141.589 18.8192L142.918 11.762C147.053 11.762 149.411 10.1902 150 7.0572H143.796L144.236 4.7048C144.825 1.57183 143.057 0 138.921 0L137.593 7.0572C133.457 7.0572 131.1 8.62903 130.511 11.762H136.714Z" fill="var(--fill-0, #02131D)"/>
</g>
<defs>
<clipPath id="clip0_0_34">
<rect width="150" height="23.524" fill="white"/>
</clipPath>
</defs>
</svg>
