<svg preserveAspectRatio="none" width="100%" height="100%" overflow="visible" style="display: block;" viewBox="0 0 1308.59 224.363" fill="none" xmlns="http://www.w3.org/2000/svg">
<g id="Image Container">
<path d="M574.586 20C574.586 8.9543 583.541 0 594.586 0H1288.59C1299.63 0 1308.59 8.95431 1308.59 20V156H574.586V20Z" fill="url(#paint0_linear_0_4)"/>
<path id="Vector" fill-rule="evenodd" clip-rule="evenodd" d="M239.314 74.7392L225.299 149.478C223.985 156.617 219.752 160.114 212.744 160.114H96.5409C89.5336 160.114 86.614 156.617 88.0739 149.478L102.088 74.7392C103.402 67.6004 107.636 64.1038 114.643 64.1038H230.846C237.854 64.1038 240.773 67.6004 239.314 74.7392ZM253.328 0H116.103C59.7529 0 27.6363 21.4165 19.6072 64.1038L1.50518 160.259C-6.52396 202.947 17.5634 224.363 73.9134 224.363H211.139C267.489 224.363 299.605 202.947 307.634 160.259L325.736 64.1038C333.765 21.4165 309.678 0 253.328 0Z" fill="var(--fill-0, #00D6FE)"/>
<g id="Example Content">
<rect width="141" height="141" transform="translate(612.586 83.3633)" fill="black"/>
<path id="Vector_2" fill-rule="evenodd" clip-rule="evenodd" d="M706.884 142.093L702.478 165.592C702.065 167.836 700.734 168.936 698.531 168.936H661.995C659.792 168.936 658.874 167.836 659.333 165.592L663.739 142.093C664.152 139.848 665.483 138.749 667.686 138.749H704.222C706.425 138.749 707.343 139.848 706.884 142.093ZM711.291 118.594H668.145C650.428 118.594 640.33 125.327 637.806 138.749L632.114 168.982C629.59 182.403 637.163 189.137 654.88 189.137H698.026C715.743 189.137 725.841 182.403 728.365 168.982L734.057 138.749C736.581 125.327 729.008 118.594 711.291 118.594Z" fill="var(--fill-0, #00D6FE)"/>
</g>
<g id="Layer_1" clip-path="url(#clip0_0_4)">
<path id="Vector_3" fill-rule="evenodd" clip-rule="evenodd" d="M1172.5 116.605H1169.89C1166.41 116.605 1164.42 117.934 1163.92 120.583H1172.41C1175.89 120.583 1177.88 119.254 1178.38 116.605L1179.12 112.627C1179.62 109.977 1178.12 108.648 1174.64 108.648H1158.32L1154.59 128.539C1158.07 128.539 1160.06 127.21 1160.56 124.561L1162.79 112.627H1173.24C1173.67 112.627 1173.85 112.844 1173.77 113.287L1173.27 115.936C1173.19 116.379 1172.92 116.596 1172.49 116.596L1172.5 116.605Z" fill="var(--fill-0, white)"/>
<path id="Vector_4" fill-rule="evenodd" clip-rule="evenodd" d="M1178.75 128.54C1182.24 128.54 1184.24 127.211 1184.74 124.562L1186.61 114.617H1181.37L1178.75 128.54Z" fill="var(--fill-0, white)"/>
<path id="Vector_5" fill-rule="evenodd" clip-rule="evenodd" d="M1182.49 108.648H1187.73L1186.98 112.627H1181.74L1182.49 108.648Z" fill="var(--fill-0, white)"/>
<path id="Vector_6" fill-rule="evenodd" clip-rule="evenodd" d="M1185.68 128.54H1191.58L1196.61 124.426L1200.1 128.54H1206L1200.1 121.578L1208.62 114.617H1205.34C1203.59 114.617 1201.94 115.277 1200.4 116.606L1197.68 118.73L1195.79 116.606C1194.73 115.277 1193.32 114.617 1191.58 114.617H1188.3L1194.19 121.578L1185.68 128.54Z" fill="var(--fill-0, white)"/>
<path id="Vector_7" fill-rule="evenodd" clip-rule="evenodd" d="M1222.12 118.595C1222.04 119.038 1221.78 120.186 1221.35 120.186H1218.73C1215.54 120.186 1213.52 120.765 1212.9 122.573H1212.86L1213.48 119.255C1213.56 118.812 1213.83 118.595 1214.26 118.595H1222.12ZM1227.49 117.935H1227.44C1227.58 115.729 1226.06 114.617 1222.87 114.617H1214.35C1210.85 114.617 1208.86 115.946 1208.36 118.595L1207.24 124.562C1206.74 127.211 1208.24 128.54 1211.73 128.54H1220.25C1223.75 128.54 1225.74 127.211 1226.24 124.562H1213.13C1212.69 124.562 1212.51 124.345 1212.59 123.902L1212.72 123.242H1221.24C1224.73 123.242 1226.73 121.913 1227.23 119.264L1227.48 117.935H1227.49Z" fill="var(--fill-0, white)"/>
<path id="Vector_8" fill-rule="evenodd" clip-rule="evenodd" d="M1236.37 108.648C1232.87 108.648 1230.88 109.977 1230.38 112.627L1227.38 128.539H1232.62L1236.37 108.648Z" fill="var(--fill-0, white)"/>
<path id="Vector_9" fill-rule="evenodd" clip-rule="evenodd" d="M1244.15 108.648C1240.65 108.648 1238.66 109.977 1238.16 112.627L1235.16 128.539H1240.41L1244.15 108.648Z" fill="var(--fill-0, white)"/>
<path id="Vector_10" fill-rule="evenodd" clip-rule="evenodd" d="M1258.23 119.255L1257.36 123.893C1257.28 124.336 1257.02 124.553 1256.59 124.553H1249.37C1248.94 124.553 1248.76 124.336 1248.85 123.893L1249.72 119.255C1249.8 118.812 1250.06 118.595 1250.5 118.595H1257.71C1258.14 118.595 1258.32 118.812 1258.23 119.255ZM1259.1 114.617H1250.59C1247.09 114.617 1245.1 115.946 1244.6 118.595L1243.48 124.562C1242.98 127.211 1244.47 128.54 1247.97 128.54H1256.49C1259.98 128.54 1261.98 127.211 1262.47 124.562L1263.6 118.595C1264.1 115.946 1262.6 114.617 1259.1 114.617Z" fill="var(--fill-0, #00D6FE)"/>
<path id="Vector_11" fill-rule="evenodd" clip-rule="evenodd" d="M1270.18 118.594L1269.06 124.561C1268.56 127.21 1270.06 128.539 1273.55 128.539H1278.8C1279.3 125.89 1277.8 124.561 1274.31 124.561L1275.43 118.594C1278.93 118.594 1280.92 117.265 1281.42 114.616H1276.17L1276.54 112.627C1277.04 109.977 1275.55 108.648 1272.05 108.648L1270.93 114.616C1267.43 114.616 1265.44 115.945 1264.94 118.594H1270.18Z" fill="var(--fill-0, white)"/>
</g>
</g>
<defs>
<linearGradient id="paint0_linear_0_4" x1="677.124" y1="-35.0283" x2="814.83" y2="185.634" gradientUnits="userSpaceOnUse">
<stop stop-color="#00D6FE"/>
<stop offset="1"/>
</linearGradient>
<clipPath id="clip0_0_4">
<rect width="126.832" height="19.8906" fill="white" transform="translate(1154.59 108.648)"/>
</clipPath>
</defs>
</svg>
