<svg preserveAspectRatio="none" width="100%" height="100%" overflow="visible" style="display: block;" viewBox="0 0 50 34.281" fill="none" xmlns="http://www.w3.org/2000/svg">
<path id="Vector" fill-rule="evenodd" clip-rule="evenodd" d="M36.5653 11.4196L34.424 22.8392C34.2232 23.9299 33.5764 24.4642 32.5057 24.4642H14.7507C13.6801 24.4642 13.234 23.9299 13.457 22.8392L15.5983 11.4196C15.7991 10.3288 16.4459 9.79457 17.5166 9.79457H35.2716C36.3422 9.79457 36.7883 10.3288 36.5653 11.4196ZM38.7066 0H17.7396C9.12979 0 4.22262 3.27228 2.99583 9.79457L0.22998 24.4864C-0.996811 31.0087 2.68356 34.281 11.2934 34.281H32.2604C40.8702 34.281 45.7774 31.0087 47.0042 24.4864L49.77 9.79457C50.9968 3.27228 47.3164 0 38.7066 0Z" fill="var(--fill-0, #00D6FE)"/>
</svg>
