<svg preserveAspectRatio="none" width="100%" height="100%" overflow="visible" style="display: block;" viewBox="0 0 25 17.1405" fill="none" xmlns="http://www.w3.org/2000/svg">
<path id="Vector" fill-rule="evenodd" clip-rule="evenodd" d="M18.2826 5.70979L17.212 11.4196C17.1116 11.965 16.7882 12.2321 16.2529 12.2321H7.37535C6.84003 12.2321 6.61698 11.965 6.72851 11.4196L7.79916 5.70979C7.89953 5.16441 8.22296 4.89729 8.75829 4.89729H17.6358C18.1711 4.89729 18.3942 5.16441 18.2826 5.70979ZM19.3533 0H8.86981C4.56489 0 2.11131 1.63614 1.49792 4.89729L0.11499 12.2432C-0.498405 15.5044 1.34178 17.1405 5.6467 17.1405H16.1302C20.4351 17.1405 22.8887 15.5044 23.5021 12.2432L24.885 4.89729C25.4984 1.63614 23.6582 0 19.3533 0Z" fill="var(--fill-0, #00D6FE)"/>
</svg>
