<svg preserveAspectRatio="none" width="100%" height="100%" overflow="visible" style="display: block;" viewBox="0 0 62.5408 62.5408" fill="none" xmlns="http://www.w3.org/2000/svg">
<g id="Monogram Example">
<rect width="62.5408" height="62.5408" rx="5.41903" fill="var(--fill-0, #151414)"/>
<path id="Vector" fill-rule="evenodd" clip-rule="evenodd" d="M39.742 27.0814L38.1739 35.4441C38.0269 36.2429 37.5532 36.6341 36.7692 36.6341H23.767C22.9829 36.6341 22.6562 36.2429 22.8196 35.4441L24.3877 27.0814C24.5347 26.2827 25.0084 25.8914 25.7924 25.8914H38.7946C39.5787 25.8914 39.9054 26.2827 39.742 27.0814ZM41.3101 18.7188H25.9558C19.6507 18.7188 16.0571 21.1151 15.1587 25.8914L13.1333 36.6504C12.2349 41.4268 14.93 43.8231 21.2351 43.8231H36.5895C42.8946 43.8231 46.4881 41.4268 47.3865 36.6504L49.412 25.8914C50.3104 21.1151 47.6152 18.7188 41.3101 18.7188Z" fill="var(--fill-0, #00D6FE)"/>
</g>
</svg>
