<svg preserveAspectRatio="none" width="100%" height="100%" overflow="visible" style="display: block;" viewBox="0 0 152.788 2.66667" fill="none" xmlns="http://www.w3.org/2000/svg">
<path id="Line 44" d="M0 1.33333C0 2.06971 0.596954 2.66667 1.33333 2.66667C2.06971 2.66667 2.66667 2.06971 2.66667 1.33333C2.66667 0.596954 2.06971 0 1.33333 0C0.596954 0 0 0.596954 0 1.33333ZM150.121 1.33333C150.121 2.06971 150.718 2.66667 151.454 2.66667C152.191 2.66667 152.788 2.06971 152.788 1.33333C152.788 0.596954 152.191 0 151.454 0C150.718 0 150.121 0.596954 150.121 1.33333ZM1.33333 1.33333V1.58333H151.454V1.33333V1.08333H1.33333V1.33333Z" fill="var(--stroke-0, black)"/>
</svg>
